<?xml version="1.0" encoding="UTF-8" standalone="no"?>
<!DOCTYPE svg PUBLIC "-//W3C//DTD SVG 1.1//EN" "http://www.w3.org/Graphics/SVG/1.1/DTD/svg11.dtd">
<svg width="100%" height="100%" viewBox="0 0 16 16" version="1.1" xmlns="http://www.w3.org/2000/svg" xmlns:xlink="http://www.w3.org/1999/xlink" xml:space="preserve" xmlns:serif="http://www.serif.com/" style="fill-rule:evenodd;clip-rule:evenodd;stroke-linejoin:round;stroke-miterlimit:2;">
    <path d="M4.715,6.542L3.343,7.914C2.781,8.476 2.464,9.24 2.464,10.035C2.464,11.681 3.819,13.036 5.465,13.036C6.26,13.036 7.024,12.719 7.586,12.157L9.414,10.328C9.976,9.766 10.293,9.002 10.293,8.207C10.293,7.053 9.627,5.997 8.586,5.5L8,6.086C7.94,6.146 7.889,6.212 7.846,6.285C8.701,6.531 9.293,7.318 9.293,8.207C9.293,8.738 9.082,9.247 8.707,9.622L6.88,11.45C6.505,11.825 5.996,12.036 5.465,12.036C4.367,12.036 3.464,11.133 3.464,10.035C3.464,9.504 3.675,8.995 4.05,8.62L4.843,7.828C4.731,7.409 4.688,6.974 4.715,6.541L4.715,6.542Z" style="fill:rgb(254,254,254);fill-rule:nonzero;"/>
    <path d="M6.586,4.672C6.024,5.234 5.707,5.998 5.707,6.793C5.707,7.947 6.373,9.003 7.414,9.5L8.189,8.724C7.318,8.49 6.707,7.694 6.707,6.792C6.707,6.262 6.918,5.753 7.293,5.378L9.12,3.55C9.495,3.175 10.004,2.964 10.535,2.964C11.633,2.964 12.536,3.867 12.536,4.965C12.536,5.496 12.325,6.005 11.95,6.38L11.157,7.172C11.269,7.592 11.312,8.027 11.285,8.459L12.657,7.087C13.219,6.525 13.536,5.761 13.536,4.965C13.536,3.32 12.181,1.965 10.535,1.965C9.74,1.965 8.976,2.282 8.414,2.844L6.586,4.672Z" style="fill:rgb(254,254,254);fill-rule:nonzero;"/>
    <g>
        <g transform="matrix(1.01774,1.11022e-16,-1.11022e-16,1.01774,1.95534,-0.371775)">
            <path d="M4.225,1.803L4.225,4.383C4.225,4.507 4.124,4.608 3.999,4.608L3.548,4.608C3.424,4.608 3.323,4.507 3.323,4.383L3.323,1.803C3.323,1.678 3.424,1.577 3.548,1.577L3.999,1.577C4.124,1.577 4.225,1.678 4.225,1.803Z" style="fill:rgb(226,0,0);"/>
        </g>
        <g transform="matrix(0.719652,-0.719652,0.719652,0.719652,-1.13236,4.57661)">
            <path d="M4.225,1.803L4.225,4.383C4.225,4.507 4.124,4.608 3.999,4.608L3.548,4.608C3.424,4.608 3.323,4.507 3.323,4.383L3.323,1.803C3.323,1.678 3.424,1.577 3.548,1.577L3.999,1.577C4.124,1.577 4.225,1.678 4.225,1.803Z" style="fill:rgb(226,0,0);"/>
        </g>
        <g transform="matrix(2.22045e-16,-1.01774,1.01774,2.22045e-16,-0.37723,10.1128)">
            <path d="M4.225,1.803L4.225,4.383C4.225,4.507 4.124,4.608 3.999,4.608L3.548,4.608C3.424,4.608 3.323,4.507 3.323,4.383L3.323,1.803C3.323,1.678 3.424,1.577 3.548,1.577L3.999,1.577C4.124,1.577 4.225,1.678 4.225,1.803Z" style="fill:rgb(226,0,0);"/>
        </g>
    </g>
    <g transform="matrix(-0.997404,-1.11022e-16,1.11022e-16,-0.997404,16.1656,15.4625)">
        <g transform="matrix(1.01774,1.11022e-16,-1.11022e-16,1.01774,1.95534,-0.371775)">
            <path d="M4.225,1.803L4.225,4.383C4.225,4.507 4.124,4.608 3.999,4.608L3.548,4.608C3.424,4.608 3.323,4.507 3.323,4.383L3.323,1.803C3.323,1.678 3.424,1.577 3.548,1.577L3.999,1.577C4.124,1.577 4.225,1.678 4.225,1.803Z" style="fill:rgb(226,0,0);"/>
        </g>
        <g transform="matrix(0.719652,-0.719652,0.719652,0.719652,-1.13236,4.57661)">
            <path d="M4.225,1.803L4.225,4.383C4.225,4.507 4.124,4.608 3.999,4.608L3.548,4.608C3.424,4.608 3.323,4.507 3.323,4.383L3.323,1.803C3.323,1.678 3.424,1.577 3.548,1.577L3.999,1.577C4.124,1.577 4.225,1.678 4.225,1.803Z" style="fill:rgb(226,0,0);"/>
        </g>
        <g transform="matrix(2.22045e-16,-1.01774,1.01774,2.22045e-16,-0.37723,10.1128)">
            <path d="M4.225,1.803L4.225,4.383C4.225,4.507 4.124,4.608 3.999,4.608L3.548,4.608C3.424,4.608 3.323,4.507 3.323,4.383L3.323,1.803C3.323,1.678 3.424,1.577 3.548,1.577L3.999,1.577C4.124,1.577 4.225,1.678 4.225,1.803Z" style="fill:rgb(226,0,0);"/>
        </g>
    </g>
</svg>
