<?xml version="1.0" encoding="UTF-8" standalone="no"?>
<!DOCTYPE svg PUBLIC "-//W3C//DTD SVG 1.1//EN" "http://www.w3.org/Graphics/SVG/1.1/DTD/svg11.dtd">
<svg width="100%" height="100%" viewBox="0 0 20 8" version="1.1" xmlns="http://www.w3.org/2000/svg" xmlns:xlink="http://www.w3.org/1999/xlink" xml:space="preserve" xmlns:serif="http://www.serif.com/" style="fill-rule:evenodd;clip-rule:evenodd;stroke-linejoin:round;stroke-miterlimit:2;">
    <g transform="matrix(8.74748e-17,1.42857,-1.42857,8.74748e-17,21.4286,-7.14286)">
        <path d="M7,2C7,2.549 6.549,3 6,3C5.451,3 5,2.549 5,2C5,1.451 5.451,1 6,1C6.549,1 7,1.451 7,2M10,2C10,2.549 9.549,3 9,3C8.451,3 8,2.549 8,2C8,1.451 8.451,1 9,1C9.549,1 10,1.451 10,2M7,5C7,5.549 6.549,6 6,6C5.451,6 5,5.549 5,5C5,4.451 5.451,4 6,4C6.549,4 7,4.451 7,5M10,5C10,5.549 9.549,6 9,6C8.451,6 8,5.549 8,5C8,4.451 8.451,4 9,4C9.549,4 10,4.451 10,5M7,8C7,8.549 6.549,9 6,9C5.451,9 5,8.549 5,8C5,7.451 5.451,7 6,7C6.549,7 7,7.451 7,8M10,8C10,8.549 9.549,9 9,9C8.451,9 8,8.549 8,8C8,7.451 8.451,7 9,7C9.549,7 10,7.451 10,8M7,11C7,11.549 6.549,12 6,12C5.451,12 5,11.549 5,11C5,10.451 5.451,10 6,10C6.549,10 7,10.451 7,11M10,11C10,11.549 9.549,12 9,12C8.451,12 8,11.549 8,11C8,10.451 8.451,10 9,10C9.549,10 10,10.451 10,11M7,14C7,14.549 6.549,15 6,15C5.451,15 5,14.549 5,14C5,13.451 5.451,13 6,13C6.549,13 7,13.451 7,14M10,14C10,14.549 9.549,15 9,15C8.451,15 8,14.549 8,14C8,13.451 8.451,13 9,13C9.549,13 10,13.451 10,14" style="fill:white;fill-opacity:0.3;fill-rule:nonzero;"/>
    </g>
</svg>
