<?xml version="1.0" encoding="UTF-8" standalone="no"?>
<!DOCTYPE svg PUBLIC "-//W3C//DTD SVG 1.1//EN" "http://www.w3.org/Graphics/SVG/1.1/DTD/svg11.dtd">
<svg width="100%" height="100%" viewBox="0 0 16 16" version="1.1" xmlns="http://www.w3.org/2000/svg" xmlns:xlink="http://www.w3.org/1999/xlink" xml:space="preserve" xmlns:serif="http://www.serif.com/" style="fill-rule:evenodd;clip-rule:evenodd;stroke-linejoin:round;stroke-miterlimit:2;">
    <g transform="matrix(2.28522,0,0,2.28522,-10.2816,-10.2814)">
        <path d="M4.646,4.646C4.74,4.552 4.867,4.499 5,4.499C5.133,4.499 5.26,4.552 5.354,4.646L8,7.293L10.646,4.646C10.74,4.552 10.867,4.499 11,4.499C11.275,4.499 11.501,4.725 11.501,5C11.501,5.133 11.448,5.26 11.354,5.354L8.707,8L11.354,10.646C11.448,10.74 11.501,10.867 11.501,11C11.501,11.275 11.275,11.501 11,11.501C10.867,11.501 10.74,11.448 10.646,11.354L8,8.707L5.354,11.354C5.26,11.448 5.133,11.501 5,11.501C4.725,11.501 4.499,11.275 4.499,11C4.499,10.867 4.552,10.74 4.646,10.646L7.293,8L4.646,5.354C4.552,5.26 4.499,5.133 4.499,5C4.499,4.867 4.552,4.74 4.646,4.646" style="fill:white;fill-rule:nonzero;"/>
    </g>
</svg>
