<?xml version="1.0" encoding="UTF-8" standalone="no"?>
<!DOCTYPE svg PUBLIC "-//W3C//DTD SVG 1.1//EN" "http://www.w3.org/Graphics/SVG/1.1/DTD/svg11.dtd">
<svg width="100%" height="100%" viewBox="0 0 200 200" version="1.1" xmlns="http://www.w3.org/2000/svg" xmlns:xlink="http://www.w3.org/1999/xlink" xml:space="preserve" xmlns:serif="http://www.serif.com/" style="fill-rule:evenodd;clip-rule:evenodd;stroke-linejoin:round;stroke-miterlimit:2;">
    <g transform="matrix(12.5,0,0,12.5,0,0)">
        <path d="M8,3C5.257,3 3,5.257 3,8L3,9L4,9C4.549,9 5,9.451 5,10L5,13C5,13.549 4.549,14 4,14L3,14C2.451,14 2,13.549 2,13L2,8C2,4.708 4.708,2 8,2C11.292,2 14,4.708 14,8L14,13C14,13.549 13.549,14 13,14L12,14C11.451,14 11,13.549 11,13L11,10C11,9.451 11.451,9 12,9L13,9L13,8C13,5.257 10.743,3 8,3" style="fill:rgb(255,212,212);fill-rule:nonzero;"/>
    </g>
    <g transform="matrix(8.64234,0,0,8.64234,61.1172,75.6077)">
        <path d="M4.646,4.646C4.74,4.552 4.867,4.499 5,4.499C5.133,4.499 5.26,4.552 5.354,4.646L8,7.293L10.646,4.646C10.74,4.552 10.867,4.499 11,4.499C11.275,4.499 11.501,4.725 11.501,5C11.501,5.133 11.448,5.26 11.354,5.354L8.707,8L11.354,10.646C11.448,10.74 11.501,10.867 11.501,11C11.501,11.275 11.275,11.501 11,11.501C10.867,11.501 10.74,11.448 10.646,11.354L8,8.707L5.354,11.354C5.26,11.448 5.133,11.501 5,11.501C4.725,11.501 4.499,11.275 4.499,11C4.499,10.867 4.552,10.74 4.646,10.646L7.293,8L4.646,5.354C4.552,5.26 4.499,5.133 4.499,5C4.499,4.867 4.552,4.74 4.646,4.646" style="fill:rgb(242,87,87);fill-rule:nonzero;"/>
    </g>
</svg>
