<?xml version="1.0" encoding="UTF-8" standalone="no"?>
<!DOCTYPE svg PUBLIC "-//W3C//DTD SVG 1.1//EN" "http://www.w3.org/Graphics/SVG/1.1/DTD/svg11.dtd">
<svg width="100%" height="100%" viewBox="0 0 16 16" version="1.1" xmlns="http://www.w3.org/2000/svg" xmlns:xlink="http://www.w3.org/1999/xlink" xml:space="preserve" xmlns:serif="http://www.serif.com/" style="fill-rule:evenodd;clip-rule:evenodd;stroke-linejoin:round;stroke-miterlimit:2;">
    <g transform="matrix(1.14286,0,0,1.14286,-4.28571,-1.14286)">
        <path d="M5.5,5.5C5.5,5.774 5.726,6 6,6L7.5,6L7.5,14.5C7.5,14.774 7.726,15 8,15C8.274,15 8.5,14.774 8.5,14.5L8.5,6L10,6C10.274,6 10.5,5.774 10.5,5.5C10.5,5.226 10.274,5 10,5L6,5C5.726,5 5.5,5.226 5.5,5.5M8,1C7.726,1 7.5,1.226 7.5,1.5L7.5,3.5C7.5,3.774 7.726,4 8,4C8.274,4 8.5,3.774 8.5,3.5L8.5,1.5C8.5,1.226 8.274,1 8,1M11,10.5C11,10.774 11.226,11 11.5,11L15.5,11C15.774,11 16,10.774 16,10.5C16,10.226 15.774,10 15.5,10L14,10L14,1.5C14,1.226 13.774,1 13.5,1C13.226,1 13,1.226 13,1.5L13,10L11.5,10C11.226,10 11,10.226 11,10.5M13.5,12C13.226,12 13,12.226 13,12.5L13,14.5C13,14.774 13.226,15 13.5,15C13.774,15 14,14.774 14,14.5L14,12.5C14,12.226 13.774,12 13.5,12" style="fill:white;"/>
    </g>
</svg>
