<?xml version="1.0" encoding="UTF-8" standalone="no"?><!DOCTYPE svg PUBLIC "-//W3C//DTD SVG 1.1//EN" "http://www.w3.org/Graphics/SVG/1.1/DTD/svg11.dtd"><svg width="100%" height="100%" viewBox="0 0 67 67" version="1.1" xmlns="http://www.w3.org/2000/svg" xmlns:xlink="http://www.w3.org/1999/xlink" xml:space="preserve" xmlns:serif="http://www.serif.com/" fill="#f25757" style="fill-rule:evenodd;clip-rule:evenodd;stroke-linejoin:round;stroke-miterlimit:2;"><g><path d="M37.781,14.792c0.719,0.346 1.178,1.077 1.179,1.875l0,33.333c-0.001,1.142 -0.941,2.08 -2.083,2.08c-0.472,0 -0.931,-0.16 -1.3,-0.455l-9.846,-7.875l-9.687,0c-1.143,0 -2.084,-0.94 -2.084,-2.083l0,-16.667c0,-1.143 0.941,-2.083 2.084,-2.083l9.687,-0l9.846,-7.875c0.624,-0.499 1.484,-0.597 2.204,-0.25" style="fill-rule:nonzero;"/><path d="M44.373,45.833c0,-2.285 1.881,-4.166 4.167,-4.166c2.286,-0 4.166,1.881 4.166,4.166c0,2.286 -1.88,4.167 -4.166,4.167c-2.286,0 -4.167,-1.881 -4.167,-4.167m0.408,-25.02c-0.013,-0.132 -0.02,-0.264 -0.02,-0.396c-0,-2.069 1.702,-3.771 3.77,-3.771c2.069,-0 3.771,1.702 3.771,3.771c0,0.132 -0.007,0.264 -0.021,0.396l-1.458,14.612c-0.122,1.168 -1.118,2.065 -2.292,2.065c-1.173,-0 -2.169,-0.897 -2.291,-2.065l-1.459,-14.612Z" style="fill-rule:nonzero;"/></g></svg>